<svg id="Capa_1" data-name="Capa 1" xmlns="http://www.w3.org/2000/svg" viewBox="0 0 512 294.24"><defs><style>.cls-1{fill:#2590e3;}</style></defs><title>001-bus</title><path class="cls-1" d="M157.15,315.12a44,44,0,1,0,44,44A44.05,44.05,0,0,0,157.15,315.12Zm0,68a24,24,0,1,1,24-24A24,24,0,0,1,157.15,383.12Z" transform="translate(0 -108.88)"/><path class="cls-1" d="M457.25,108.88H406a10,10,0,0,0,0,20h51.25a34.81,34.81,0,0,1,33.52,25.59H406a10,10,0,0,0-10,10v89.92a10,10,0,0,0,10,10h86V349.3H462.66a44,44,0,0,0-85.77,0H376V164.56a10,10,0,0,0-10-10H286a10,10,0,0,0-10,10v80.32H90.33a10,10,0,1,0,0,20H276V349.3H225a10,10,0,1,0,0,20H377a44,44,0,0,0,85.59,0H502a10,10,0,0,0,10-10V163.63A54.81,54.81,0,0,0,457.25,108.88ZM356,252h-6.32a10,10,0,1,0,0,20H356V349.3H296V174.56h60Zm63.77,131.15a24,24,0,1,1,24-24A24,24,0,0,1,419.77,383.12ZM492,244.39H416V174.47h76Z" transform="translate(0 -108.88)"/><path class="cls-1" d="M373.07,111.81a10,10,0,1,0,2.93,7.07A10.08,10.08,0,0,0,373.07,111.81Z" transform="translate(0 -108.88)"/><path class="cls-1" d="M326,108.88H54.75A54.85,54.85,0,0,0,.61,155.47,9.91,9.91,0,0,0,0,158.88V359.3a10,10,0,0,0,10,10H85.28a10,10,0,1,0,0-20H20V224.88H54a10,10,0,0,0,10-10v-56a10,10,0,0,0-10-10H23.29a34.81,34.81,0,0,1,31.46-20H326a10,10,0,0,0,0-20Zm-282,60v36H20v-36Z" transform="translate(0 -108.88)"/><path class="cls-1" d="M61.07,247.81A10,10,0,1,0,64,254.88,10.08,10.08,0,0,0,61.07,247.81Z" transform="translate(0 -108.88)"/><path class="cls-1" d="M246,148.88H190a10,10,0,0,0-10,10v56a10,10,0,0,0,10,10h56a10,10,0,0,0,10-10v-56A10,10,0,0,0,246,148.88Zm-10,56H200v-36h36Z" transform="translate(0 -108.88)"/><path class="cls-1" d="M150,148.88H94a10,10,0,0,0-10,10v56a10,10,0,0,0,10,10h56a10,10,0,0,0,10-10v-56A10,10,0,0,0,150,148.88Zm-10,56H104v-36h36Z" transform="translate(0 -108.88)"/></svg>