<svg id="Capa_1" data-name="Capa 1" xmlns="http://www.w3.org/2000/svg" viewBox="0 0 512 335.65"><defs><style>.cls-1{fill:#2590e3;}</style></defs><title>002-beach</title><path class="cls-1" d="M504.5,328.66c-22.12,0-33.31,4.33-44.14,8.52-10,3.86-19.41,7.51-38.73,7.51s-28.75-3.65-38.73-7.51c-10.83-4.19-22-8.52-44.14-8.52s-33.3,4.33-44.12,8.52c-10,3.87-19.4,7.51-38.7,7.51s-28.73-3.64-38.71-7.51c-10.82-4.19-22-8.52-44.13-8.52S139.81,333,129,337.18c-10,3.87-19.4,7.51-38.7,7.51s-28.71-3.64-38.69-7.51c-10.81-4.19-22-8.52-44.1-8.52a7.5,7.5,0,0,0,0,15c19.3,0,28.71,3.65,38.69,7.51,10.82,4.19,22,8.52,44.1,8.52s33.29-4.33,44.11-8.52c10-3.86,19.4-7.51,38.7-7.51s28.74,3.65,38.72,7.51c10.82,4.19,22,8.52,44.12,8.52s33.3-4.33,44.12-8.52c10-3.86,19.39-7.51,38.7-7.51s28.74,3.65,38.73,7.51c10.82,4.19,22,8.52,44.14,8.52s33.31-4.33,44.14-8.52c10-3.86,19.41-7.51,38.73-7.51a7.5,7.5,0,0,0,0-15Z" transform="translate(0 -88.18)"/><path class="cls-1" d="M471.42,373a7.5,7.5,0,0,0-9.7-4.3l-1.37.53A119.58,119.58,0,0,1,446.5,374a7.5,7.5,0,0,0,1.88,14.76,7.71,7.71,0,0,0,1.89-.24,137.87,137.87,0,0,0,15.5-5.24l1.35-.53A7.5,7.5,0,0,0,471.42,373Z" transform="translate(0 -88.18)"/><path class="cls-1" d="M416.59,376.67c-16-.58-24.59-3.9-33.69-7.42-10.83-4.19-22-8.52-44.14-8.52s-33.3,4.33-44.12,8.52c-10,3.86-19.4,7.51-38.7,7.51s-28.73-3.65-38.71-7.51c-10.82-4.19-22-8.52-44.13-8.52s-33.29,4.33-44.11,8.52c-9.08,3.51-17.65,6.83-33.59,7.42a7.5,7.5,0,1,0,.55,15c18.46-.68,28.62-4.62,38.46-8.42s19.39-7.51,38.69-7.51,28.74,3.64,38.72,7.51c10.82,4.19,22,8.52,44.12,8.52s33.3-4.33,44.12-8.52c10-3.87,19.4-7.51,38.7-7.51s28.75,3.64,38.73,7.51,20,7.75,38.56,8.42a7.5,7.5,0,1,0,.54-15Z" transform="translate(0 -88.18)"/><path class="cls-1" d="M338.76,392.79c-22.11,0-33.3,4.33-44.12,8.52-10,3.86-19.4,7.51-38.7,7.51s-28.73-3.65-38.71-7.51c-10.82-4.19-22-8.52-44.13-8.52a7.5,7.5,0,1,0,0,15c19.31,0,28.74,3.65,38.72,7.51,10.82,4.19,22,8.52,44.12,8.52s33.3-4.33,44.12-8.52c10-3.86,19.39-7.51,38.7-7.51a7.5,7.5,0,0,0,0-15Z" transform="translate(0 -88.18)"/><path class="cls-1" d="M65.51,374a120,120,0,0,1-13.91-4.74,7.5,7.5,0,1,0-5.42,14,135.08,135.08,0,0,0,15.57,5.27,7.18,7.18,0,0,0,1.88.24A7.5,7.5,0,0,0,65.51,374Z" transform="translate(0 -88.18)"/><path class="cls-1" d="M354.28,227.69a119.73,119.73,0,0,0-218,68.39c0,2.85.1,5.72.3,8.55a7.49,7.49,0,0,0,7.47,7l.54,0a7.5,7.5,0,0,0,6.95-8c-.18-2.47-.26-5-.26-7.49A104.73,104.73,0,0,1,342,236.27a7.5,7.5,0,1,0,12.3-8.58Z" transform="translate(0 -88.18)"/><path class="cls-1" d="M103.69,288.58H55.6a7.5,7.5,0,0,0,0,15h48.09a7.5,7.5,0,0,0,0-15Z" transform="translate(0 -88.18)"/><path class="cls-1" d="M256,88.18a7.5,7.5,0,0,0-7.5,7.5v48.09a7.5,7.5,0,0,0,15,0V95.68A7.5,7.5,0,0,0,256,88.18Z" transform="translate(0 -88.18)"/><path class="cls-1" d="M403,149.07a7.5,7.5,0,0,0-10.61,0l-34,34A7.5,7.5,0,0,0,369,193.69l34-34A7.5,7.5,0,0,0,403,149.07Z" transform="translate(0 -88.18)"/><path class="cls-1" d="M204.64,152.5l-6.13-14.81a7.5,7.5,0,0,0-13.86,5.74l6.14,14.81a7.5,7.5,0,1,0,13.85-5.74Z" transform="translate(0 -88.18)"/><path class="cls-1" d="M418.45,228.79a7.5,7.5,0,0,0-9.8-4.06l-14.81,6.14a7.5,7.5,0,1,0,5.74,13.85l14.82-6.13A7.5,7.5,0,0,0,418.45,228.79Z" transform="translate(0 -88.18)"/><path class="cls-1" d="M323.29,133.63a7.5,7.5,0,0,0-9.8,4.06l-6.13,14.81a7.5,7.5,0,1,0,13.85,5.74l6.14-14.81A7.5,7.5,0,0,0,323.29,133.63Z" transform="translate(0 -88.18)"/><path class="cls-1" d="M118.16,230.87l-14.81-6.14a7.5,7.5,0,0,0-5.74,13.86l14.81,6.13a7.5,7.5,0,1,0,5.74-13.85Z" transform="translate(0 -88.18)"/><path class="cls-1" d="M116.86,136.27a50.06,50.06,0,0,0-30.59,10.49,41.08,41.08,0,0,0-12.35-1.9,41.91,41.91,0,0,0-41.86,41.86,7.5,7.5,0,0,0,7.5,7.5H159.81a7.5,7.5,0,0,0,7.5-7.5A50.5,50.5,0,0,0,116.86,136.27ZM48.13,179.22a26.9,26.9,0,0,1,25.79-19.36,26.58,26.58,0,0,1,10.81,2.32,7.5,7.5,0,0,0,8.12-1.37,35.3,35.3,0,0,1,58.66,18.41Z" transform="translate(0 -88.18)"/><path class="cls-1" d="M382,262.24a41.2,41.2,0,0,0-12.36,1.9,50.29,50.29,0,0,0-81,40,7.5,7.5,0,0,0,7.5,7.5H416.32a7.5,7.5,0,0,0,7.5-7.5A41.9,41.9,0,0,0,382,262.24ZM304.38,296.6A35.29,35.29,0,0,1,363,278.19a7.49,7.49,0,0,0,8.13,1.36,26.77,26.77,0,0,1,36.6,17.05Z" transform="translate(0 -88.18)"/></svg>