<svg id="Layer_1" data-name="Layer 1" xmlns="http://www.w3.org/2000/svg" viewBox="0 0 512 512"><defs><style>.cls-1{fill:#2590e3;}</style></defs><title>004-air-freight</title><path class="cls-1" d="M241.22,257.14a10,10,0,1,0,14.14,0A10,10,0,0,0,241.22,257.14Z" transform="translate(0 -0.5)"/><path class="cls-1" d="M400.23,29.75c-17.16,13.29-21.84,20.14-82.7,80.37l-36.48-5.94,16.74-16.75A30,30,0,1,0,255.36,45L208.07,92.3,42.69,65.37A33.74,33.74,0,0,0,17.48,126L182.29,245.35l-30.85,30.86c-10.58,10.58-21.71,25.12-33.14,43.28l-76.86-22.6a32.32,32.32,0,0,0-27.51,57.58l63,43.62C66,422.3,59.3,439.8,59,440.61a10,10,0,0,0,12.9,12.9c.81-.31,18.31-7,42.52-17.95l43.62,63a32.32,32.32,0,0,0,57.58-27.51L193,394.2c18.17-11.44,32.71-22.57,43.28-33.14l30.86-30.86L386.5,495a33.74,33.74,0,0,0,60.63-25.21L420.2,304.43l47.29-47.29a30,30,0,0,0-42.42-42.43l-16.75,16.74L402.38,195c60.3-60.92,67-65.49,80.33-82.65l.05-.07c30.84-40,38.06-80.34,17.95-100.46S440.21-1.11,400.23,29.75ZM269.5,59.15a10,10,0,1,1,14.15,14.14l-26.93,26.92-24.33-4ZM29.21,109.8A13.74,13.74,0,0,1,39.48,85.11l260.63,42.43L196.62,231Zm-5.6,209.39a12.33,12.33,0,0,1,12.19-3.12l71.88,21.14c-7.35,12.88-14.77,27.1-22.16,42.5L25.31,338A12.32,12.32,0,0,1,23.61,319.19Zm169.71,169.7a12.34,12.34,0,0,1-18.85-1.7L132.79,427c15.41-7.41,29.64-14.83,42.5-22.16l21.13,71.88A12.32,12.32,0,0,1,193.32,488.89Zm245.89-260A10,10,0,0,1,453.35,243l-37.11,37.1-3.95-24.32ZM427.39,473a13.74,13.74,0,0,1-24.69,10.28L281.47,315.88,385,212.39ZM222.15,346.92c-11,11-27.11,22.89-47.87,35.32-27,16.16-58.92,31.47-87.72,43.7,12.57-29.58,28.16-62,44.67-89.33,12.07-20,23.63-35.54,34.35-46.26,244.28-243.69,229.8-231.12,244.63-243,16.44-1.05,30.92,3.83,41,13.91s15,24.56,13.91,41C453.24,117.15,465.66,102.82,222.15,346.92ZM482.23,76a66,66,0,0,0-45.74-45.74c14.47-7.34,38.85-15.56,50.08-4.34C495.43,34.8,493.23,54.33,482.23,76Z" transform="translate(0 -0.5)"/><path class="cls-1" d="M297.79,200.57l-28.28,28.28A10,10,0,1,0,283.65,243l28.28-28.28a10,10,0,1,0-14.14-14.14Z" transform="translate(0 -0.5)"/><path class="cls-1" d="M354.36,144l-28.29,28.29a10,10,0,1,0,14.14,14.14l28.29-28.29A10,10,0,0,0,354.36,144Z" transform="translate(0 -0.5)"/></svg>