<svg id="Capa_1" data-name="Capa 1" xmlns="http://www.w3.org/2000/svg" viewBox="0 0 512 420"><defs><style>.cls-1{fill:#2590e3;}</style></defs><title>007-camera</title><path class="cls-1" d="M402,166a10,10,0,1,0,10,10A10,10,0,0,0,402,166Z" transform="translate(0 -46)"/><path class="cls-1" d="M482,126H372.18L340.47,62.59A29.83,29.83,0,0,0,313.64,46H198.36a29.83,29.83,0,0,0-26.83,16.59L139.82,126H120V116A30,30,0,0,0,90,86H70a30,30,0,0,0-30,30v10H30A30,30,0,0,0,0,156V436a30,30,0,0,0,30,30H482a30,30,0,0,0,30-30V156A30,30,0,0,0,482,126ZM189.41,71.53a10,10,0,0,1,9-5.53H313.64a10,10,0,0,1,8.95,5.53L349.82,126H162.18ZM60,116a10,10,0,0,1,10-10H90a10,10,0,0,1,10,10v10H60ZM20,225.9H146.45a130.2,130.2,0,0,0,0,140.1H20ZM256,186c60.13,0,110,48.72,110,110S316.2,406,256,406A110.05,110.05,0,0,1,146,296C146,234.79,195.79,186,256,186ZM492,436a10,10,0,0,1-10,10H30a10,10,0,0,1-10-10V386H162.23a129.91,129.91,0,0,0,187.54,0H492Zm0-70H365.55a130,130,0,0,0,0-140H492Zm0-160H349.77a129.92,129.92,0,0,0-187.55,0H20V156a10,10,0,0,1,10-10H482a10,10,0,0,1,10,10Z" transform="translate(0 -46)"/><path class="cls-1" d="M286,86H226a10,10,0,0,0,0,20h60a10,10,0,0,0,0-20Z" transform="translate(0 -46)"/><path class="cls-1" d="M256,206a90,90,0,1,0,90,90A90.1,90.1,0,0,0,256,206Zm0,160a70,70,0,1,1,70-70A70.08,70.08,0,0,1,256,366Z" transform="translate(0 -46)"/><path class="cls-1" d="M256,246a50.06,50.06,0,0,0-50,50,10,10,0,0,0,20,0,30,30,0,0,1,30-30,10,10,0,0,0,0-20Z" transform="translate(0 -46)"/><path class="cls-1" d="M462,166H442a10,10,0,0,0,0,20h20a10,10,0,0,0,0-20Z" transform="translate(0 -46)"/></svg>