<svg id="Capa_1" data-name="Capa 1" xmlns="http://www.w3.org/2000/svg" viewBox="0 0 600.76 496"><defs><style>.cls-1{fill:#2590e3;}</style></defs><title>008-travel</title><path class="cls-1" d="M204,295.29a38,38,0,1,1-38,38A38,38,0,0,1,204,295.29Z" transform="translate(0 -52.38)"/><path class="cls-1" d="M574.27,325.82l25.78-203.26L415.11,52.38l-221.83,106L0,76.71,26.1,293.56l-25,213.53,205.36,38.52,209.46-39.89,184.85,42.66ZM414.43,73.91l163.81,61.73L567,224.52l-163.27-41.3ZM392.76,85.19l-8.64,93.06-.14,0-113,14.58-.68,2.49c-.14.54-13.26,49-27.08,71a76.75,76.75,0,0,0-29.75-10.09l-9.17-81ZM375.48,292.77l-98.25,14.81a78.11,78.11,0,0,0-27.61-37C262.48,250,274.09,210.28,277,199.79l106.36-13.73ZM184.27,176.2l9.08,80.23A77.84,77.84,0,0,0,130,309.65l-83.78-13-8-77.7c27.77-1.84,48.6-10.88,62-27,12-14.52,15.49-31.69,16.15-44.49ZM24.19,108.6l84.46,35.66c-.24,11.78-2.9,28.87-14.44,42.8-12,14.51-31.18,22.63-57,24.26ZM23.1,490.92l20.78-174.4,82.62,12.8c-.06,1.33-.19,2.64-.19,4a77.2,77.2,0,0,0,16.8,48.11L100.2,415.88l-13.52,87ZM185,521.28l-90.73-17L107.36,420l40.84-32.78a77.44,77.44,0,0,0,48.42,23.38Zm-43.25-188A62.28,62.28,0,1,1,204,395.58,62.34,62.34,0,0,1,141.73,333.31Zm64.69,192-1.75-.33,12.12-115.12a77.78,77.78,0,0,0,64.9-76.56c0-2.08-.15-4.11-.31-6.16l96-14.48,8,81.91c-42.13,2-73.63,14.94-93.45,38.86-23.11,27.92-24.2,62.74-23,79.95Zm70.25-13.38c-.94-16.34.41-48.4,21.26-73.57,18.44-22.26,48.18-34.27,88.24-36.09l8.54,87.15ZM403,191,566,232.2l-9.77,77-161-19.43ZM534.06,375.74l-74.18-8.81,13.59,131.58L414,485.73l-16.85-176,1.73-.27,155.61,19.75,23,193.35-96.3-22.21-12.71-124.6,66.11,7.67Z" transform="translate(0 -52.38)"/></svg>