<svg id="Layer_1" data-name="Layer 1" xmlns="http://www.w3.org/2000/svg" viewBox="0 0 512 511.92"><defs><style>.cls-1{fill:#2590e3;}</style></defs><title>009-hotel</title><path class="cls-1" d="M145.05,230.4H85.32a8.53,8.53,0,0,0-8.53,8.54v85.32a8.53,8.53,0,0,0,8.53,8.53h59.73a8.53,8.53,0,0,0,8.53-8.53V238.94A8.53,8.53,0,0,0,145.05,230.4Zm-8.54,85.32H93.85V247.47h42.66v68.25Z" transform="translate(0 -0.04)"/><path class="cls-1" d="M290.09,230.4H230.37a8.54,8.54,0,0,0-8.54,8.54v85.32a8.53,8.53,0,0,0,8.54,8.53h59.72a8.53,8.53,0,0,0,8.53-8.53V238.94A8.53,8.53,0,0,0,290.09,230.4Zm-8.53,85.32H238.9V247.47h42.66Z" transform="translate(0 -0.04)"/><path class="cls-1" d="M290.09,366.92H230.37a8.53,8.53,0,0,0-8.54,8.53v85.32a8.53,8.53,0,0,0,8.54,8.53h59.72a8.53,8.53,0,0,0,8.53-8.53V375.45A8.53,8.53,0,0,0,290.09,366.92Zm-8.53,85.32H238.9V384h42.66Z" transform="translate(0 -0.04)"/><path class="cls-1" d="M426.61,230.4H366.88a8.53,8.53,0,0,0-8.53,8.54v85.32a8.53,8.53,0,0,0,8.53,8.53h59.73a8.53,8.53,0,0,0,8.53-8.53V238.94A8.53,8.53,0,0,0,426.61,230.4Zm-8.54,85.32H375.41V247.47h42.66Z" transform="translate(0 -0.04)"/><path class="cls-1" d="M145.05,366.92H85.32a8.53,8.53,0,0,0-8.53,8.53v85.32a8.53,8.53,0,0,0,8.53,8.53h59.73a8.53,8.53,0,0,0,8.53-8.53V375.45A8.53,8.53,0,0,0,145.05,366.92Zm-8.54,85.32H93.85V384h42.66v68.26Z" transform="translate(0 -0.04)"/><path class="cls-1" d="M426.61,366.92H366.88a8.53,8.53,0,0,0-8.53,8.53v85.32a8.53,8.53,0,0,0,8.53,8.53h59.73a8.53,8.53,0,0,0,8.53-8.53V375.45A8.53,8.53,0,0,0,426.61,366.92Zm-8.54,85.32H375.41V384h42.66Z" transform="translate(0 -0.04)"/><path class="cls-1" d="M477.8,494.9V204.81h8.53a8.53,8.53,0,0,0,8.53-8.53V153.61a8.53,8.53,0,0,0-8.53-8.53H477.8V111a8.53,8.53,0,0,0-8.53-8.54H452.2V8.57A8.53,8.53,0,0,0,443.67,0H68.26a8.53,8.53,0,0,0-8.53,8.53v93.85H42.66A8.53,8.53,0,0,0,34.13,111v34.13H25.6a8.53,8.53,0,0,0-8.54,8.53v42.66a8.54,8.54,0,0,0,8.54,8.54h8.53V494.9H0V512H512V494.9ZM76.79,17.1H435.14v85.32H76.79ZM51.19,119.49H460.73v25.59H51.19ZM460.73,494.9H51.19V204.81H460.73V494.9ZM42.66,187.74H34.13V162.15H477.8v25.59H42.66Z" transform="translate(0 -0.04)"/><path class="cls-1" d="M242.86,46.29a25.91,25.91,0,0,0-14.59-14.91,29.57,29.57,0,0,0-11.48-2.15,30.08,30.08,0,0,0-11.5,2.13,26,26,0,0,0-8.91,5.93,26.62,26.62,0,0,0-5.74,9,32.52,32.52,0,0,0,0,22.62,26.72,26.72,0,0,0,5.74,9,26.1,26.1,0,0,0,8.91,5.93,32.06,32.06,0,0,0,23,0,26,26,0,0,0,8.87-5.93,26.88,26.88,0,0,0,5.72-9,32.52,32.52,0,0,0,0-22.62ZM233.09,65.8a17.3,17.3,0,0,1-3.48,6.14,15.1,15.1,0,0,1-5.51,3.86,19,19,0,0,1-7.31,1.34,19.24,19.24,0,0,1-7.34-1.34,15.21,15.21,0,0,1-5.54-3.86,17.22,17.22,0,0,1-3.52-6.14,25.5,25.5,0,0,1-1.23-8.2,25.46,25.46,0,0,1,1.23-8.2,17.31,17.31,0,0,1,3.52-6.16,15.14,15.14,0,0,1,5.54-3.88A19.24,19.24,0,0,1,216.79,38a19,19,0,0,1,7.31,1.34,15,15,0,0,1,5.51,3.88,17.39,17.39,0,0,1,3.48,6.16,26,26,0,0,1,1.21,8.2A26.08,26.08,0,0,1,233.09,65.8Z" transform="translate(0 -0.04)"/><polygon class="cls-1" points="170.02 29.8 170.02 53.68 143.99 53.68 143.99 29.8 133.59 29.8 133.59 85.32 143.99 85.32 143.99 61.06 170.02 61.06 170.02 85.32 180.43 85.32 180.43 29.8 170.02 29.8"/><polygon class="cls-1" points="350.02 76.8 350.02 29.8 339.69 29.8 339.69 85.32 372.25 85.32 372.25 76.8 350.02 76.8"/><polygon class="cls-1" points="245.35 29.8 245.35 38.29 262.13 38.29 262.13 85.32 272.46 85.32 272.46 38.29 289.16 38.29 289.16 29.8 245.35 29.8"/><polygon class="cls-1" points="330.74 38.02 330.74 29.8 295.73 29.8 295.73 85.32 330.74 85.32 330.74 77.07 306.13 77.07 306.13 61.36 325.52 61.36 325.52 53.41 306.13 53.41 306.13 38.02 330.74 38.02"/></svg>