<svg id="Layer_1" data-name="Layer 1" xmlns="http://www.w3.org/2000/svg" viewBox="0 0 447.89 480.02"><defs><style>.cls-1{fill:#2590e3;}</style></defs><title>010-snow-globe</title><path class="cls-1" d="M125.31,90.78,114.87,78.66a192.26,192.26,0,0,0-57.67,87l15.2,4.88A176.3,176.3,0,0,1,125.31,90.78Z" transform="translate(-16.12 0.02)"/><path class="cls-1" d="M163.58,65.62l-7-14.4A192.05,192.05,0,0,0,132,65.49l9,13.2A179.11,179.11,0,0,1,163.58,65.62Z" transform="translate(-16.12 0.02)"/><path class="cls-1" d="M48.53,469.47A8,8,0,0,0,56.11,480H424a8,8,0,0,0,7.58-10.53l-30.11-90.32a223.94,223.94,0,1,0-322.86,0ZM412.91,464H67.21l26.66-80H386.26ZM252.38,248.06l34.28,40H211.75l-34.28-40Zm-20.32-16v-16h16v16Zm64,72v64h-80V304Zm-96-5v69h-16V320a8,8,0,0,0-8-8h-32a8,8,0,0,0-8,8v48h-16V299l40-46.66Zm-32,29v40h-16V328Zm158.46-44.66a8,8,0,0,0-6.5-3.33h-4.18l11.61-29a8,8,0,0,0-7.43-11h-2.2L336,208.2l18.2,31.86H352a8,8,0,0,0-7.43,11l11.62,29H352a8,8,0,0,0-7.58,10.53L356.93,328H315.15l12.47-37.46A8,8,0,0,0,326.54,283.38ZM328,344v24H312V344Zm-295.92-120A207.95,207.95,0,1,1,390,368H344V344h24a8,8,0,0,0,7.58-10.52l-12.47-37.46H368a8,8,0,0,0,7.43-11l-11.61-29H368a8,8,0,0,0,6.94-12l-32-56a8.33,8.33,0,0,0-13.89,0l-32,56a8,8,0,0,0,6.95,12h4.18l-8.89,22.22-35.28-41.17v-29a8,8,0,0,0-8-8h-32a8,8,0,0,0-8,8v24h-56a7.92,7.92,0,0,0-3.27.8h-.09a8,8,0,0,0-2.68,1.95l-48,56a8,8,0,0,0-2,5.26v72h-14A206.41,206.41,0,0,1,32.12,224.06Z" transform="translate(-16.12 0.02)"/><path class="cls-1" d="M312,400h-144a8,8,0,0,0-8,8v32a8,8,0,0,0,8,8H312a8,8,0,0,0,8-8V408A8,8,0,0,0,312,400Zm-8,32h-128V416h128Z" transform="translate(-16.12 0.02)"/><path class="cls-1" d="M232.06,320h16v24h-16Z" transform="translate(-16.12 0.02)"/><path class="cls-1" d="M264.06,320h16v24h-16Z" transform="translate(-16.12 0.02)"/><path class="cls-1" d="M208.07,144.08h16v16h-16Z" transform="translate(-16.12 0.02)"/><path class="cls-1" d="M176.08,96.1h16v16h-16Z" transform="translate(-16.12 0.02)"/><path class="cls-1" d="M400,208.07h16v16H400Z" transform="translate(-16.12 0.02)"/><path class="cls-1" d="M360,128.09h16v16H360Z" transform="translate(-16.12 0.02)"/><path class="cls-1" d="M56.11,248.06h16v16h-16Z" transform="translate(-16.12 0.02)"/><path class="cls-1" d="M248.06,40.11h16v16h-16Z" transform="translate(-16.12 0.02)"/><path class="cls-1" d="M280.05,112.09h16v16h-16Z" transform="translate(-16.12 0.02)"/><path class="cls-1" d="M104.1,184.07h16v16h-16Z" transform="translate(-16.12 0.02)"/></svg>