<svg xmlns="http://www.w3.org/2000/svg" width="19.75" height="21.41" viewBox="0 0 19.75 21.41">
  <defs>
    <style>
      .cls-1 {
        fill: #2590e3;
        fill-rule: evenodd;
      }
    </style>
  </defs>
  <path id="Shape_642_copy" data-name="Shape 642 copy" class="cls-1" d="M1150.83,5741.78a10.71,10.71,0,0,0,0,21.42,10.806,10.806,0,0,0,7.92-3.48l-2.1-1.95a8.011,8.011,0,0,1-5.82,2.37,7.653,7.653,0,0,1,0-15.3,8.132,8.132,0,0,1,5.82,2.37l2.1-1.95A10.806,10.806,0,0,0,1150.83,5741.78ZM1139,5752v-2h11v2h-11Zm0,4v-2h11v2h-11Z" transform="translate(-1139 -5741.78)"/>
</svg>
