<svg xmlns="http://www.w3.org/2000/svg" width="34" height="44" viewBox="0 0 34 44">
  <defs>
    <style>
      .cls-1 {
        fill: #fff;
        fill-rule: evenodd;
      }
    </style>
  </defs>
  <path id="Forma_1" data-name="Forma 1" class="cls-1" d="M3871.58,3088.24l-0.58-.58-7.63-7.66-0.58-.58a1.4,1.4,0,0,0-1-.42h-21.93a1.958,1.958,0,0,0-1.86,2.22v40.26a1.73,1.73,0,0,0,1.39,1.45,0.451,0.451,0,0,0,.11.03,1.472,1.472,0,0,0,.36.04h30.28a1.472,1.472,0,0,0,.36-0.04,0.451,0.451,0,0,0,.11-0.03,1.73,1.73,0,0,0,1.39-1.45V3089.6A1.748,1.748,0,0,0,3871.58,3088.24Zm-2.27-.14h-6.38v-6.4Zm-29.45,33.38a0.419,0.419,0,0,1-.15-0.04,0.331,0.331,0,0,1-.2-0.31V3110.1h30.98v11.03a0.331,0.331,0,0,1-.2.31,0.419,0.419,0,0,1-.15.04h-30.28Zm-0.35-12.89v-27.37c0-.17.03-0.7,0.35-0.7h21.61a0.929,0.929,0,0,0-.05.29v8.81h8.77a1.544,1.544,0,0,0,.3-0.04v19.01h-30.98Zm10.23,4.35a2.59,2.59,0,0,0-.85-0.46,2.93,2.93,0,0,0-.96-0.16h-2.19v7.64h1.24v-2.75h0.92a3.155,3.155,0,0,0,1.09-.18,2.392,2.392,0,0,0,.85-0.5,2.122,2.122,0,0,0,.55-0.79,2.766,2.766,0,0,0,.2-1.05,2.082,2.082,0,0,0-.24-1A2.457,2.457,0,0,0,3849.74,3112.94Zm-0.47,2.53a1.135,1.135,0,0,1-.3.49,1.072,1.072,0,0,1-.4.25,1.189,1.189,0,0,1-.45.08h-1.14v-3.03h0.93a1.628,1.628,0,0,1,.76.15,1.142,1.142,0,0,1,.45.38,1.121,1.121,0,0,1,.21.46,1.91,1.91,0,0,1,.06.43A2.226,2.226,0,0,1,3849.27,3115.47Zm7.96-2.03a3.387,3.387,0,0,0-1.21-.81,4.213,4.213,0,0,0-1.69-.31h-2.29v7.64h2.88q0.15,0,.45-0.03a3.215,3.215,0,0,0,.66-0.17,3,3,0,0,0,.75-0.39,2.6,2.6,0,0,0,.69-0.71,4.02,4.02,0,0,0,.52-1.12,5.748,5.748,0,0,0,.2-1.61,3.771,3.771,0,0,0-.24-1.33A3.328,3.328,0,0,0,3857.23,3113.44Zm-0.9,4.8a2.05,2.05,0,0,1-1.82.81h-1.23v-5.79H3854a3.683,3.683,0,0,1,1.45.24,2.231,2.231,0,0,1,.88.61,1.9,1.9,0,0,1,.44.84,3.865,3.865,0,0,1,.12.95A4.126,4.126,0,0,1,3856.33,3118.24Zm3.65,1.72h1.26v-3.44h3.19v-0.85h-3.19v-2.41h3.51v-0.94h-4.77v7.64Zm2.14-23.54a14.565,14.565,0,0,0-2.53.27,24.084,24.084,0,0,1-3.85-5.74c1.01-4.27.51-4.87,0.28-5.16a1.616,1.616,0,0,0-.95-0.79,3.648,3.648,0,0,0-.77.13,1.422,1.422,0,0,0-.85.92c-0.54,1.25.19,3.39,0.95,5.04a52.317,52.317,0,0,1-2.86,8.15c-2.87,1.32-4.39,2.61-4.53,3.85a1.84,1.84,0,0,0,.85,1.7,1.194,1.194,0,0,0,.73.25h0c0.66,0,1.33-.51,2.1-1.6a21.861,21.861,0,0,0,1.8-3.23,35.984,35.984,0,0,1,6.67-2.14,5.022,5.022,0,0,0,3.18,1.74,2.013,2.013,0,0,0,1.68-.91,1.516,1.516,0,0,0,.29-1.64C3864.02,3096.7,3863.31,3096.42,3862.12,3096.42Zm-13.52,7.34a0.569,0.569,0,0,1-.32-0.53c0.05-.42.7-1.17,2.32-2.08C3849.37,3103.42,3848.72,3103.72,3848.6,3103.76Zm6.2-17.39c0.03-.01.79,0.83,0.07,2.44A1.824,1.824,0,0,1,3854.8,3086.37Zm-1.56,12.15a53.49,53.49,0,0,0,2.02-5.73,26.079,26.079,0,0,0,2.89,4.2A38.128,38.128,0,0,0,3853.24,3098.52Zm9.75-.36a1.148,1.148,0,0,1-.92.34,2.143,2.143,0,0,1-1.17-.72,10.034,10.034,0,0,1,1.37-.08,1.5,1.5,0,0,1,.89.15A1.466,1.466,0,0,1,3862.99,3098.16Z" transform="translate(-3838 -3079)"/>
</svg>
